<?xml version="1.0" encoding="iso-8859-1"?>
<!-- Generator: Adobe Illustrator 15.1.0, SVG Export Plug-In . SVG Version: 6.00 Build 0)  -->
<!DOCTYPE svg PUBLIC "-//W3C//DTD SVG 1.1//EN" "http://www.w3.org/Graphics/SVG/1.1/DTD/svg11.dtd">
<svg version="1.1" id="Layer_1" xmlns="http://www.w3.org/2000/svg" xmlns:xlink="http://www.w3.org/1999/xlink" x="0px" y="0px"
	 width="180px" height="180px" viewBox="0 0 180 180" style="enable-background:new 0 0 180 180;" xml:space="preserve">
<path style="fill:#9DBDB8;" d="M119.922,43.527c27.275,16.957,35.667,52.829,18.71,80.12c-2.395,3.866-5.183,7.359-8.267,10.443
	l-0.015-0.016l-20.904-20.902l-20.229-20.23l-19.885,19.885l-6.718,6.718l-14.482-36.39l23.455-9.331l4.461,11.228l50.373-20.059
	l-16.691-16.691l-0.064-9.816C113.235,39.831,116.681,41.522,119.922,43.527z"/>
<polygon style="fill:#F38782;" points="126.421,64.993 76.048,85.052 99.786,62.583 88.419,34.022 109.589,25.599 109.665,38.485 
	109.729,48.302 "/>
<polygon style="fill:#F4F5F5;" points="109.446,113.173 89.217,121.235 69.332,112.827 89.217,92.942 "/>
<polygon style="fill:#F38782;" points="99.786,62.583 71.587,73.824 48.132,83.155 39.802,62.253 32.286,43.371 83.956,22.796 
	88.419,34.022 "/>
<path style="fill:#9DBDB8;" d="M48.132,83.155l14.482,36.39l-14.53,14.53l-0.015,0.016c-18.712-18.68-22.83-48.414-8.268-71.838
	L48.132,83.155z"/>
<path style="fill:#1A4451;" d="M121.568,40.863c-2.787-1.724-5.738-3.22-8.782-4.491l-0.066-10.791
	c-0.002-0.077-0.018-0.148-0.024-0.224c-0.009-0.118-0.015-0.237-0.038-0.356c-0.023-0.117-0.063-0.229-0.096-0.341
	c-0.025-0.071-0.035-0.147-0.064-0.219c-0.004-0.013-0.013-0.021-0.016-0.032c-0.049-0.117-0.113-0.227-0.174-0.336
	c-0.042-0.072-0.074-0.148-0.119-0.217c-0.056-0.08-0.123-0.15-0.184-0.226c-0.068-0.083-0.129-0.171-0.204-0.246
	c-0.057-0.056-0.12-0.1-0.181-0.149c-0.092-0.08-0.18-0.164-0.279-0.231c-0.084-0.057-0.178-0.097-0.266-0.146
	c-0.086-0.047-0.169-0.101-0.259-0.139c-0.087-0.038-0.181-0.059-0.271-0.088c-0.104-0.033-0.205-0.072-0.311-0.096
	c-0.068-0.014-0.141-0.016-0.211-0.024c-0.137-0.021-0.271-0.04-0.41-0.042c-0.01,0-0.017-0.002-0.025-0.002
	c-0.007,0-0.013,0-0.021,0c-0.073,0-0.142,0.017-0.216,0.022c-0.121,0.009-0.241,0.015-0.363,0.04
	c-0.119,0.022-0.23,0.061-0.346,0.098c-0.07,0.023-0.145,0.033-0.215,0.061l-18.255,7.266l-3.308-8.315l-0.002-0.001
	c-0.004-0.013-0.012-0.023-0.018-0.035c-0.159-0.386-0.384-0.726-0.66-1.006c-0.858-0.869-2.183-1.19-3.389-0.711l-51.67,20.576
	c-1.607,0.639-2.391,2.46-1.752,4.066l6.947,17.451c-14.162,24.133-10.353,54.477,9.531,74.325c3.307,3.306,7.01,6.238,11.005,8.713
	c10.071,6.262,21.302,9.319,32.444,9.319c15.795-0.001,31.413-6.148,43.275-18.032c3.307-3.305,6.238-7.009,8.713-11.005
	C159.13,96.592,150.284,58.717,121.568,40.863z M106.484,30.204l0.052,8.387c0,0.01,0,0.018,0,0.026l0.062,9.705
	c0,0.06,0.015,0.116,0.019,0.176c0.009,0.142,0.017,0.284,0.045,0.425c0.021,0.104,0.057,0.197,0.086,0.295
	c0.031,0.096,0.053,0.193,0.092,0.287c0.046,0.112,0.11,0.217,0.17,0.324c0.039,0.07,0.072,0.145,0.117,0.212
	c0.107,0.162,0.231,0.312,0.367,0.45c0.008,0.007,0.013,0.018,0.021,0.025l0.002,0.002c0.003,0.004,0.008,0.008,0.011,0.01
	l13.315,13.315L90.058,76.103l11.881-11.246c0.006-0.006,0.011-0.013,0.016-0.019c0.105-0.101,0.193-0.213,0.283-0.325
	c0.039-0.053,0.088-0.099,0.125-0.152c0.003-0.004,0.008-0.009,0.012-0.014c0.02-0.03,0.033-0.065,0.053-0.098
	c0.035-0.055,0.063-0.113,0.094-0.172c0.047-0.084,0.102-0.163,0.139-0.252c0.001-0.001,0.002-0.003,0.002-0.004
	c0.033-0.074,0.049-0.153,0.074-0.229c0.038-0.112,0.082-0.222,0.108-0.337c0-0.002,0.001-0.004,0.001-0.006
	c0.023-0.104,0.026-0.211,0.039-0.318c0.01-0.09,0.029-0.179,0.031-0.269c0.004-0.099-0.012-0.196-0.02-0.294
	c-0.008-0.105-0.008-0.211-0.024-0.314c-0.001-0.006-0.001-0.013-0.001-0.019c-0.013-0.064-0.04-0.127-0.056-0.191
	c-0.03-0.132-0.062-0.265-0.111-0.394c-0.005-0.008-0.005-0.016-0.008-0.025L92.49,35.773L106.484,30.204z M82.204,26.864
	l3.295,8.281c0.004,0.01,0.005,0.022,0.01,0.035c0.003,0.007,0.009,0.014,0.012,0.021l10.199,25.63l-45.842,18.26L36.354,45.122
	L82.204,26.864z M39.364,69.614l19.578,49.174l-10.807,10.807C33.308,113.046,29.978,89.524,39.364,69.614z M89.252,117.852
	l-14.419-6.098L89.217,97.37l14.654,14.654L89.252,117.852z M135.971,121.999c-1.671,2.697-3.571,5.241-5.669,7.6l-18.621-18.621
	c-0.004-0.003-0.008-0.008-0.013-0.011L91.431,90.728c-0.611-0.611-1.412-0.917-2.214-0.917s-1.604,0.306-2.214,0.917l-19.85,19.85
	c-0.004,0.004-0.006,0.007-0.01,0.01l-3.379,3.38l-11.57-29.059l17.637-7.024l3.281,8.26c0.002,0.005,0.005,0.011,0.007,0.016
	l0.02,0.047c0,0.002,0,0.004,0.001,0.005c0.008,0.021,0.023,0.035,0.031,0.056c0.1,0.234,0.233,0.455,0.393,0.666
	c0.02,0.026,0.029,0.06,0.05,0.084c0.005,0.006,0.006,0.013,0.011,0.019c0.02,0.022,0.045,0.036,0.064,0.06
	c0.031,0.035,0.053,0.075,0.086,0.11c0.16,0.169,0.336,0.315,0.522,0.44c0.026,0.017,0.055,0.027,0.081,0.044
	c0.209,0.134,0.43,0.232,0.658,0.312c0.069,0.023,0.138,0.045,0.208,0.063c0.255,0.068,0.513,0.112,0.774,0.116
	c0.01,0,0.02,0.004,0.03,0.004c0.257,0,0.515-0.044,0.771-0.109c0.127-0.032,0.256-0.062,0.379-0.11
	c0.003-0.001,0.006-0.001,0.008-0.003l50.371-20.059c0.004-0.002,0.006-0.003,0.008-0.004c0.168-0.066,0.328-0.154,0.485-0.252
	c0.022-0.015,0.05-0.023,0.071-0.037c0.005-0.004,0.01-0.008,0.014-0.013c0.174-0.114,0.33-0.243,0.475-0.387
	c0.002-0.001,0.002-0.001,0.004-0.003c0.025-0.026,0.042-0.055,0.066-0.081c0.115-0.124,0.225-0.251,0.319-0.39
	c0.056-0.084,0.095-0.174,0.141-0.26c0.05-0.091,0.104-0.178,0.144-0.273c0.043-0.099,0.068-0.203,0.098-0.305
	c0.028-0.092,0.063-0.18,0.083-0.272c0.019-0.101,0.024-0.2,0.035-0.302c0.011-0.101,0.028-0.2,0.029-0.303
	c0-0.107-0.015-0.213-0.024-0.319c-0.01-0.095-0.011-0.188-0.027-0.282c-0.031-0.161-0.08-0.315-0.135-0.472
	c-0.016-0.038-0.019-0.076-0.033-0.114c0-0.002-0.004-0.004-0.004-0.006c-0.073-0.184-0.166-0.361-0.275-0.531
	c-0.006-0.008-0.009-0.018-0.015-0.025c-0.007-0.012-0.016-0.02-0.021-0.029c-0.113-0.166-0.239-0.32-0.376-0.459
	c-0.002-0.002-0.004-0.003-0.004-0.004l-15.782-15.782l-0.022-3.754c1.869,0.888,3.691,1.862,5.438,2.942
	C144.044,62.212,151.987,96.22,135.971,121.999z"/>
</svg>
