<?xml version="1.0" encoding="iso-8859-1"?>
<!-- Generator: Adobe Illustrator 15.1.0, SVG Export Plug-In . SVG Version: 6.00 Build 0)  -->
<!DOCTYPE svg PUBLIC "-//W3C//DTD SVG 1.1//EN" "http://www.w3.org/Graphics/SVG/1.1/DTD/svg11.dtd">
<svg version="1.1" id="Layer_1" xmlns="http://www.w3.org/2000/svg" xmlns:xlink="http://www.w3.org/1999/xlink" x="0px" y="0px"
	 width="200px" height="200px" viewBox="0 0 200 200" style="enable-background:new 0 0 200 200;" xml:space="preserve">
<g>
	<path style="fill:#1A4451;" d="M38.571,183.027c-0.241,0-0.438-0.076-0.591-0.229c-0.154-0.153-0.23-0.354-0.23-0.594V160.83
		c0-0.219,0.076-0.408,0.23-0.576c0.154-0.162,0.35-0.245,0.591-0.245h9.208c2.718,0,4.906,0.632,6.561,1.892
		c1.655,1.26,2.483,3.162,2.483,5.707c0,2.541-0.828,4.412-2.483,5.605c-1.654,1.194-3.843,1.793-6.561,1.793h-3.914v7.199
		c0,0.24-0.082,0.44-0.248,0.594c-0.163,0.152-0.367,0.229-0.609,0.229H38.571z M43.769,170.467h3.846
		c0.941,0,1.694-0.242,2.252-0.724c0.56-0.483,0.839-1.217,0.839-2.203c0-0.835-0.241-1.535-0.723-2.104
		c-0.483-0.57-1.273-0.854-2.369-0.854h-3.846V170.467z"/>
	<path style="fill:#1A4451;" d="M60.736,163.46c-0.241,0-0.439-0.074-0.592-0.23c-0.154-0.15-0.23-0.346-0.23-0.591v-2.958
		c0-0.219,0.076-0.411,0.23-0.575c0.153-0.165,0.351-0.248,0.592-0.248h3.947c0.218,0,0.411,0.083,0.574,0.248
		c0.165,0.164,0.247,0.356,0.247,0.575v2.958c0,0.245-0.082,0.44-0.247,0.591c-0.164,0.156-0.356,0.23-0.574,0.23H60.736z
		 M60.768,183.027c-0.241,0-0.438-0.076-0.591-0.229c-0.155-0.153-0.231-0.354-0.231-0.594v-15.456c0-0.24,0.076-0.438,0.231-0.59
		c0.153-0.154,0.35-0.232,0.591-0.232h3.881c0.241,0,0.438,0.078,0.592,0.232c0.154,0.152,0.23,0.35,0.23,0.59v15.456
		c0,0.24-0.076,0.44-0.23,0.594c-0.154,0.152-0.352,0.229-0.592,0.229H60.768z"/>
	<path style="fill:#1A4451;" d="M77.442,183.356c-2.762,0-4.867-0.657-6.313-1.973c-1.447-1.314-2.237-3.124-2.369-5.425
		c-0.022-0.44-0.033-0.933-0.033-1.479c0-0.551,0.011-1.043,0.033-1.48c0.131-2.305,0.948-4.114,2.45-5.428
		c1.501-1.315,3.579-1.973,6.232-1.973c2.673,0,4.763,0.657,6.264,1.973c1.5,1.313,2.317,3.123,2.451,5.428
		c0.021,0.438,0.032,0.93,0.032,1.48c0,0.546-0.011,1.038-0.032,1.479c-0.134,2.301-0.922,4.11-2.368,5.425
		C82.342,182.699,80.226,183.356,77.442,183.356z M77.442,179.344c0.965,0,1.677-0.293,2.136-0.887
		c0.461-0.59,0.725-1.479,0.792-2.662c0.02-0.328,0.031-0.769,0.031-1.314c0-0.551-0.011-0.989-0.031-1.316
		c-0.066-1.162-0.33-2.046-0.792-2.648c-0.458-0.603-1.17-0.904-2.136-0.904c-0.967,0-1.678,0.302-2.138,0.904
		c-0.462,0.603-0.713,1.486-0.755,2.648c-0.023,0.327-0.034,0.766-0.034,1.316c0,0.546,0.011,0.986,0.034,1.314
		c0.042,1.184,0.293,2.072,0.755,2.662C75.764,179.051,76.475,179.344,77.442,179.344z"/>
	<path style="fill:#1A4451;" d="M90.265,183.027c-0.241,0-0.437-0.076-0.591-0.229c-0.154-0.153-0.232-0.354-0.232-0.594v-15.456
		c0-0.24,0.078-0.438,0.232-0.59c0.154-0.154,0.35-0.232,0.591-0.232h3.782c0.241,0,0.444,0.078,0.608,0.232
		c0.166,0.152,0.247,0.35,0.247,0.59v1.253c0.547-0.68,1.283-1.253,2.203-1.713c0.921-0.459,2.006-0.689,3.256-0.689
		s2.367,0.286,3.354,0.854c0.985,0.57,1.76,1.41,2.318,2.517c0.56,1.107,0.838,2.461,0.838,4.063v9.171
		c0,0.24-0.078,0.44-0.229,0.594c-0.153,0.152-0.35,0.229-0.593,0.229h-4.144c-0.24,0-0.437-0.076-0.591-0.229
		c-0.153-0.153-0.231-0.354-0.231-0.594v-8.976c0-1.03-0.245-1.826-0.738-2.387c-0.493-0.559-1.223-0.837-2.188-0.837
		c-0.898,0-1.617,0.278-2.153,0.837c-0.537,0.561-0.807,1.356-0.807,2.387v8.976c0,0.24-0.081,0.44-0.246,0.594
		c-0.164,0.152-0.356,0.229-0.575,0.229H90.265z"/>
	<path style="fill:#1A4451;" d="M118.481,183.356c-2.588,0-4.648-0.699-6.184-2.104c-1.535-1.403-2.336-3.484-2.4-6.246
		c-0.021-0.397-0.021-0.779,0-1.151c0.088-2.609,0.899-4.638,2.434-6.084c1.532-1.446,3.572-2.171,6.116-2.171
		c1.928,0,3.529,0.385,4.8,1.149c1.271,0.771,2.22,1.816,2.846,3.141c0.624,1.326,0.938,2.824,0.938,4.489v0.791
		c0,0.24-0.078,0.438-0.229,0.593c-0.153,0.151-0.354,0.229-0.593,0.229h-10.525v0.229c0.023,0.965,0.266,1.78,0.725,2.451
		c0.462,0.667,1.139,1.002,2.04,1.002c0.635,0,1.135-0.143,1.496-0.429s0.63-0.536,0.806-0.757c0.197-0.217,0.356-0.36,0.476-0.425
		c0.123-0.069,0.315-0.1,0.578-0.1h4.077c0.197,0,0.367,0.064,0.51,0.197c0.141,0.13,0.214,0.306,0.214,0.527
		c-0.024,0.372-0.209,0.82-0.561,1.346c-0.351,0.524-0.861,1.04-1.528,1.546c-0.669,0.505-1.507,0.927-2.515,1.268
		C120.989,183.187,119.817,183.356,118.481,183.356z M115.683,172.735h5.559v-0.065c0-1.075-0.24-1.924-0.722-2.549
		c-0.482-0.626-1.174-0.938-2.072-0.938c-0.877,0-1.557,0.312-2.04,0.938c-0.483,0.625-0.725,1.474-0.725,2.549V172.735z"/>
	<path style="fill:#1A4451;" d="M138.013,183.356c-2.587,0-4.648-0.699-6.182-2.104c-1.536-1.403-2.336-3.484-2.401-6.246
		c-0.023-0.397-0.023-0.779,0-1.151c0.087-2.609,0.901-4.638,2.434-6.084c1.534-1.446,3.571-2.171,6.115-2.171
		c1.93,0,3.531,0.385,4.801,1.149c1.272,0.771,2.22,1.816,2.844,3.141c0.627,1.326,0.939,2.824,0.939,4.489v0.791
		c0,0.24-0.078,0.438-0.229,0.593c-0.154,0.151-0.352,0.229-0.593,0.229h-10.523v0.229c0.021,0.965,0.263,1.78,0.722,2.451
		c0.462,0.667,1.141,1.002,2.04,1.002c0.636,0,1.136-0.143,1.499-0.429c0.361-0.286,0.628-0.536,0.806-0.757
		c0.197-0.217,0.353-0.36,0.474-0.425c0.121-0.069,0.313-0.1,0.578-0.1h4.075c0.199,0,0.367,0.064,0.511,0.197
		c0.142,0.13,0.214,0.306,0.214,0.527c-0.021,0.372-0.208,0.82-0.56,1.346c-0.352,0.524-0.859,1.04-1.529,1.546
		c-0.668,0.505-1.507,0.927-2.514,1.268C140.524,183.187,139.351,183.356,138.013,183.356z M135.218,172.735h5.557v-0.065
		c0-1.075-0.239-1.924-0.722-2.549c-0.483-0.626-1.174-0.938-2.074-0.938c-0.875,0-1.556,0.312-2.04,0.938
		c-0.48,0.625-0.722,1.474-0.722,2.549V172.735z"/>
	<path style="fill:#1A4451;" d="M150.477,183.027c-0.241,0-0.438-0.076-0.592-0.229c-0.154-0.153-0.23-0.354-0.23-0.594v-15.456
		c0-0.217,0.076-0.408,0.23-0.573c0.153-0.165,0.351-0.249,0.592-0.249h3.782c0.241,0,0.443,0.084,0.608,0.249
		s0.246,0.356,0.246,0.573v1.316c0.57-0.682,1.268-1.204,2.089-1.577c0.823-0.374,1.749-0.562,2.778-0.562h1.45
		c0.238,0,0.436,0.078,0.59,0.232c0.155,0.152,0.231,0.35,0.231,0.59v3.389c0,0.241-0.076,0.44-0.231,0.592
		c-0.154,0.154-0.352,0.23-0.59,0.23h-3.191c-0.897,0-1.595,0.248-2.09,0.74c-0.492,0.494-0.738,1.188-0.738,2.086v8.419
		c0,0.24-0.081,0.44-0.247,0.594c-0.165,0.152-0.368,0.229-0.608,0.229H150.477z"/>
</g>
<path style="fill:#9DBDB8;" d="M130.044,37.358c27.275,16.957,35.667,52.829,18.709,80.12c-2.395,3.866-5.182,7.359-8.266,10.443
	l-0.015-0.016l-20.904-20.902L99.339,86.773l-19.885,19.885l-6.717,6.718L58.253,76.987l23.455-9.332l4.462,11.228l50.372-20.058
	l-16.691-16.691l-0.064-9.816C123.357,33.663,126.802,35.354,130.044,37.358z"/>
<polygon style="fill:#F38782;" points="136.542,58.825 86.17,78.883 109.908,56.414 98.541,27.854 119.71,19.43 119.787,32.317 
	119.851,42.133 "/>
<polygon style="fill:#F4F5F5;" points="119.568,107.004 99.339,115.066 79.454,106.658 99.339,86.773 "/>
<polygon style="fill:#F38782;" points="109.908,56.414 81.708,67.655 58.253,76.987 49.923,56.084 42.408,37.202 94.078,16.627 
	98.541,27.854 "/>
<path style="fill:#9DBDB8;" d="M58.253,76.987l14.483,36.389l-14.531,14.53l-0.015,0.016c-18.711-18.68-22.829-48.414-8.268-71.837
	L58.253,76.987z"/>
<path style="fill:#1A4451;" d="M131.69,34.694c-2.787-1.723-5.738-3.22-8.783-4.491l-0.066-10.792
	c-0.001-0.077-0.018-0.148-0.024-0.223c-0.009-0.118-0.015-0.237-0.038-0.356c-0.023-0.118-0.063-0.228-0.096-0.341
	c-0.024-0.072-0.035-0.147-0.064-0.219c-0.003-0.012-0.012-0.021-0.015-0.032c-0.049-0.118-0.113-0.226-0.174-0.336
	c-0.042-0.072-0.074-0.148-0.119-0.217c-0.055-0.08-0.123-0.15-0.184-0.225c-0.067-0.083-0.128-0.171-0.204-0.246
	c-0.057-0.055-0.121-0.1-0.18-0.15c-0.092-0.08-0.181-0.164-0.28-0.231c-0.084-0.057-0.178-0.096-0.266-0.145
	c-0.086-0.047-0.168-0.101-0.258-0.139c-0.087-0.038-0.181-0.058-0.271-0.087c-0.104-0.034-0.205-0.073-0.31-0.096
	c-0.069-0.014-0.141-0.015-0.211-0.024c-0.136-0.02-0.271-0.04-0.41-0.042c-0.009,0-0.017-0.003-0.026-0.003
	c-0.006,0-0.012,0-0.02,0c-0.073,0-0.142,0.017-0.215,0.023c-0.121,0.009-0.242,0.015-0.364,0.04
	c-0.119,0.022-0.23,0.061-0.345,0.098c-0.07,0.023-0.144,0.034-0.214,0.061l-18.255,7.265l-3.308-8.315l-0.001-0.001
	c-0.004-0.012-0.013-0.023-0.018-0.035c-0.159-0.385-0.384-0.725-0.661-1.005c-0.858-0.87-2.182-1.191-3.389-0.711L41.25,34.292
	c-1.606,0.639-2.391,2.46-1.751,4.067l6.948,17.451c-14.163,24.132-10.353,54.476,9.531,74.325
	c3.306,3.306,7.009,6.238,11.005,8.713c10.072,6.262,21.302,9.319,32.444,9.319c15.795-0.001,31.413-6.148,43.276-18.032
	c3.306-3.305,6.238-7.009,8.712-11.005C169.252,90.423,160.406,52.548,131.69,34.694z M116.606,24.036l0.052,8.387
	c0,0.009,0,0.017,0,0.026l0.062,9.705c0,0.06,0.015,0.116,0.018,0.176c0.009,0.142,0.017,0.285,0.046,0.425
	c0.02,0.103,0.057,0.197,0.086,0.295c0.03,0.095,0.052,0.193,0.091,0.286c0.046,0.113,0.11,0.217,0.17,0.324
	c0.04,0.07,0.072,0.145,0.118,0.212c0.107,0.162,0.231,0.312,0.367,0.45c0.007,0.007,0.012,0.018,0.021,0.026l0.001,0.001
	c0.003,0.004,0.007,0.008,0.011,0.011l13.315,13.315L100.18,69.934l11.881-11.247c0.006-0.006,0.011-0.012,0.015-0.018
	c0.105-0.101,0.194-0.213,0.283-0.326c0.04-0.052,0.088-0.098,0.125-0.151c0.003-0.005,0.008-0.009,0.012-0.014
	c0.02-0.03,0.034-0.065,0.052-0.098c0.035-0.055,0.064-0.113,0.095-0.171c0.046-0.084,0.101-0.164,0.138-0.252
	c0.001-0.001,0.003-0.003,0.003-0.005c0.032-0.073,0.049-0.153,0.073-0.229c0.039-0.112,0.083-0.222,0.109-0.336
	c0-0.002,0.001-0.005,0.001-0.006c0.023-0.104,0.026-0.211,0.038-0.318c0.011-0.09,0.029-0.179,0.032-0.269
	c0.003-0.098-0.012-0.196-0.02-0.294c-0.007-0.105-0.007-0.211-0.024-0.315c-0.001-0.006-0.001-0.012-0.001-0.018
	c-0.012-0.064-0.04-0.127-0.055-0.191c-0.03-0.131-0.061-0.265-0.111-0.393c-0.005-0.009-0.005-0.017-0.008-0.026l-10.205-25.651
	L116.606,24.036z M92.326,20.696l3.294,8.28c0.005,0.01,0.005,0.023,0.01,0.035c0.003,0.007,0.009,0.014,0.012,0.021l10.199,25.63
	L60,72.921L46.476,38.953L92.326,20.696z M49.486,63.446l19.579,49.173l-10.807,10.807C43.43,106.877,40.1,83.355,49.486,63.446z
	 M99.374,111.683l-14.419-6.098l14.384-14.384l14.654,14.654L99.374,111.683z M146.093,115.83c-1.671,2.697-3.572,5.241-5.669,7.6
	l-18.621-18.621c-0.003-0.003-0.008-0.008-0.012-0.011l-20.237-20.239c-0.611-0.612-1.413-0.917-2.214-0.917
	s-1.604,0.306-2.214,0.917l-19.849,19.849c-0.004,0.004-0.007,0.007-0.01,0.01l-3.379,3.38l-11.57-29.059l17.636-7.024l3.282,8.26
	c0.002,0.005,0.005,0.011,0.007,0.016l0.02,0.047c0,0.001,0,0.003,0,0.004c0.008,0.02,0.024,0.035,0.032,0.055
	c0.099,0.235,0.233,0.456,0.392,0.667c0.02,0.026,0.03,0.06,0.05,0.084c0.004,0.006,0.006,0.013,0.011,0.019
	c0.019,0.023,0.045,0.037,0.064,0.06c0.032,0.035,0.053,0.075,0.086,0.11c0.161,0.169,0.337,0.315,0.523,0.44
	c0.026,0.017,0.055,0.027,0.082,0.044c0.209,0.133,0.429,0.232,0.658,0.312c0.069,0.023,0.138,0.044,0.208,0.063
	c0.254,0.068,0.513,0.113,0.774,0.116c0.01,0,0.02,0.004,0.03,0.004c0.256,0,0.514-0.044,0.77-0.11
	c0.128-0.032,0.256-0.062,0.379-0.11c0.003-0.001,0.006-0.001,0.008-0.003L137.7,61.734c0.003-0.001,0.005-0.003,0.008-0.004
	c0.168-0.066,0.327-0.154,0.485-0.251c0.023-0.015,0.05-0.024,0.072-0.038c0.004-0.003,0.009-0.007,0.014-0.012
	c0.173-0.115,0.33-0.243,0.474-0.387c0.001-0.001,0.001-0.001,0.004-0.003c0.024-0.026,0.042-0.055,0.066-0.081
	c0.115-0.124,0.225-0.251,0.319-0.39c0.055-0.084,0.095-0.173,0.141-0.26c0.049-0.09,0.104-0.178,0.144-0.272
	c0.043-0.099,0.067-0.203,0.098-0.306c0.028-0.092,0.062-0.179,0.083-0.272c0.019-0.101,0.024-0.201,0.035-0.301
	c0.011-0.101,0.028-0.201,0.029-0.303c0-0.107-0.015-0.213-0.024-0.32c-0.009-0.095-0.011-0.188-0.028-0.283
	c-0.03-0.161-0.079-0.315-0.134-0.471c-0.015-0.038-0.019-0.076-0.034-0.115c0-0.001-0.003-0.003-0.003-0.006
	c-0.074-0.184-0.167-0.361-0.275-0.531c-0.006-0.007-0.009-0.018-0.015-0.026c-0.006-0.011-0.016-0.019-0.021-0.029
	c-0.113-0.166-0.239-0.32-0.376-0.459c-0.002-0.001-0.003-0.003-0.003-0.004l-15.783-15.782l-0.023-3.754
	c1.87,0.887,3.692,1.862,5.439,2.942C154.167,56.043,162.11,90.051,146.093,115.83z"/>
</svg>
